<?xml version="1.0" encoding="UTF-8" standalone="no"?><!DOCTYPE svg PUBLIC "-//W3C//DTD SVG 1.1//EN" "http://www.w3.org/Graphics/SVG/1.1/DTD/svg11.dtd"><svg width="100%" height="100%" viewBox="0 0 240 240" version="1.1" xmlns="http://www.w3.org/2000/svg" xmlns:xlink="http://www.w3.org/1999/xlink" xml:space="preserve" xmlns:serif="http://www.serif.com/" style="fill-rule:evenodd;clip-rule:evenodd;stroke-linecap:round;stroke-linejoin:round;stroke-miterlimit:1.5;"><path d="M111.035,128.965l-83.013,0c-2.474,0 -4.483,-2.008 -4.483,-4.482l0,-8.966c0,-2.474 2.009,-4.482 4.483,-4.482l83.013,-0l-0,-83.013c-0,-2.474 2.008,-4.483 4.482,-4.483l8.966,0c2.474,0 4.482,2.009 4.482,4.483l0,83.013l83.013,-0c2.474,-0 4.483,2.008 4.483,4.482l-0,8.966c-0,2.474 -2.009,4.482 -4.483,4.482l-83.013,0l0,83.013c0,2.474 -2.008,4.483 -4.482,4.483l-8.966,-0c-2.474,-0 -4.482,-2.009 -4.482,-4.483l-0,-83.013Z" style="fill:#fff;stroke:#231f20;stroke-width:2px;"/></svg>