<?xml version="1.0" encoding="UTF-8" standalone="no"?><!DOCTYPE svg PUBLIC "-//W3C//DTD SVG 1.1//EN" "http://www.w3.org/Graphics/SVG/1.1/DTD/svg11.dtd"><svg width="100%" height="100%" viewBox="0 0 1600 1600" version="1.1" xmlns="http://www.w3.org/2000/svg" xmlns:xlink="http://www.w3.org/1999/xlink" xml:space="preserve" xmlns:serif="http://www.serif.com/" style="fill-rule:evenodd;clip-rule:evenodd;stroke-linejoin:round;stroke-miterlimit:2;"><path d="M1189.49,1163.24c-243.022,116.766 -547.474,112.021 -778.972,-0c-6.435,4.16 -21.96,18.096 -27.116,24.573c34.273,28.066 91.611,45.612 124.562,61.858c-17.028,46.789 -51.689,98.293 -83.041,135.577c-59.315,-16.1 -225.456,-75.604 -385.734,-198.202c-67.193,-478.295 229.003,-875.383 229.003,-875.383c170.002,-88.973 281.218,-88.973 312.994,-96.917c14.299,20.654 35.485,63.777 43.294,81.565c97.269,-20.304 241.284,-19.957 351.048,-0c7.809,-17.788 28.995,-60.911 43.294,-81.565c31.776,7.944 142.992,7.944 312.994,96.917c-0,-0 296.196,397.088 229.003,875.383c-160.278,122.598 -326.419,182.102 -385.734,198.202c-31.352,-37.284 -66.013,-88.788 -83.041,-135.577c32.951,-16.246 90.289,-33.792 124.562,-61.858c-5.156,-6.477 -20.681,-20.413 -27.116,-24.573Zm-644.232,-460.761c-77.166,-0 -139.815,70.812 -139.815,158.032c0,87.221 62.649,158.033 139.815,158.033c77.165,-0 139.814,-70.812 139.814,-158.033c-0,-87.22 -62.649,-158.032 -139.814,-158.032Zm511.394,-0c-77.166,-0 -139.814,70.812 -139.814,158.032c-0,87.221 62.648,158.033 139.814,158.033c77.166,-0 139.814,-70.812 139.814,-158.033c0,-87.22 -62.648,-158.032 -139.814,-158.032Z" style="fill:#C80000;"/></svg>
