<?xml version="1.0" encoding="UTF-8" standalone="no"?><!DOCTYPE svg PUBLIC "-//W3C//DTD SVG 1.1//EN" "http://www.w3.org/Graphics/SVG/1.1/DTD/svg11.dtd"><svg width="100%" height="100%" viewBox="0 0 534 534" version="1.1" xmlns="http://www.w3.org/2000/svg" xmlns:xlink="http://www.w3.org/1999/xlink" xml:space="preserve" xmlns:serif="http://www.serif.com/" style="fill-rule:evenodd;clip-rule:evenodd;stroke-linejoin:round;stroke-miterlimit:2;"><g><path d="M266.667,21.263c-138.946,-0.001 -251.617,112.645 -251.617,251.616c-0,111.175 72.096,205.488 172.071,238.763c12.571,2.333 17.187,-5.459 17.187,-12.105c0,-6 -0.233,-25.82 -0.341,-46.845c-70,15.221 -84.771,-29.688 -84.771,-29.688c-11.446,-29.083 -27.938,-36.816 -27.938,-36.816c-22.833,-15.617 1.721,-15.292 1.721,-15.292c25.263,1.771 38.571,25.929 38.571,25.929c22.442,38.458 58.863,27.342 73.221,20.917c2.258,-16.263 8.779,-27.367 15.975,-33.65c-55.888,-6.355 -114.642,-27.934 -114.642,-124.346c0,-27.471 9.834,-49.917 25.929,-67.542c-2.616,-6.333 -11.229,-31.925 2.434,-66.583c-0,-0 21.125,-6.763 69.208,25.791c20.075,-5.579 41.604,-8.383 62.992,-8.479c21.375,0.096 42.916,2.892 63.029,8.471c48.025,-32.554 69.125,-25.792 69.125,-25.792c13.696,34.655 5.083,60.25 2.471,66.584c16.133,17.625 25.896,40.071 25.896,67.541c-0,96.642 -58.863,117.917 -114.892,124.15c9.029,7.809 17.071,23.125 17.071,46.596c-0,33.667 -0.292,60.763 -0.292,69.05c-0,6.696 4.533,14.542 17.283,12.071c99.917,-33.308 171.929,-127.592 171.929,-238.725c-0.004,-138.962 -112.662,-251.612 -251.62,-251.612l-0,-0.005Z" style="fill:#C80000;"/><path d="M110.35,382.525c-0.554,1.25 -2.521,1.625 -4.313,0.771c-1.833,-0.817 -2.854,-2.521 -2.262,-3.775c0.542,-1.292 2.513,-1.646 4.333,-0.784c1.834,0.821 2.875,2.542 2.238,3.792l0.004,-0.004Zm10.192,11.371c-1.196,1.112 -3.542,0.596 -5.134,-1.167c-1.65,-1.75 -1.958,-4.096 -0.737,-5.225c1.242,-1.108 3.517,-0.583 5.167,1.167c1.641,1.775 1.966,4.1 0.708,5.229l-0.004,-0.004Zm9.925,14.487c-1.542,1.075 -4.067,0.071 -5.625,-2.166c-1.542,-2.242 -1.542,-4.929 0.041,-6c1.555,-1.075 4.042,-0.104 5.625,2.112c1.534,2.271 1.534,4.959 -0.041,6.05l-0,0.004Zm13.587,14.005c-1.375,1.52 -4.316,1.112 -6.466,-0.959c-2.196,-2.029 -2.809,-4.917 -1.43,-6.433c1.4,-1.525 4.355,-1.1 6.517,0.958c2.196,2.025 2.858,4.917 1.388,6.429l-0.009,0.005Zm18.75,8.129c-0.612,1.97 -3.437,2.866 -6.291,2.025c-2.846,-0.863 -4.709,-3.167 -4.125,-5.159c0.583,-1.987 3.429,-2.916 6.3,-2.02c2.845,0.858 4.708,3.149 4.116,5.154Zm20.596,1.504c0.071,2.075 -2.346,3.791 -5.333,3.833c-3.013,0.071 -5.45,-1.612 -5.48,-3.654c0,-2.096 2.367,-3.792 5.375,-3.85c2.988,-0.054 5.442,1.612 5.442,3.667l-0.004,0.004Zm19.158,-3.259c0.359,2.021 -1.721,4.1 -4.691,4.655c-2.917,0.541 -5.625,-0.717 -6,-2.721c-0.359,-2.075 1.758,-4.154 4.675,-4.692c2.975,-0.512 5.641,0.709 6.016,2.763l0,-0.004Z" style="fill:#C80000;fill-rule:nonzero;"/></g></svg>
