<?xml version="1.0" encoding="UTF-8" standalone="no"?><!DOCTYPE svg PUBLIC "-//W3C//DTD SVG 1.1//EN" "http://www.w3.org/Graphics/SVG/1.1/DTD/svg11.dtd"><svg width="100%" height="100%" viewBox="0 0 392 203" version="1.1" xmlns="http://www.w3.org/2000/svg" xmlns:xlink="http://www.w3.org/1999/xlink" xml:space="preserve" xmlns:serif="http://www.serif.com/" style="fill-rule:evenodd;clip-rule:evenodd;stroke-linecap:round;stroke-linejoin:round;stroke-miterlimit:1.5;"><rect id="Artboard1" x="0" y="0" width="391.068" height="202.992" style="fill:none;"/><g><g><path d="M100.668,27.294l29.423,114.576l-91.66,23.538l-29.423,-114.576l91.66,-23.538Z" style="fill:#fff;stroke:#231f20;stroke-width:2.9px;"/><path d="M109.171,31.796l14.662,117.381l-93.905,11.729l-14.662,-117.381l93.905,-11.729Z" style="fill:#fff;stroke:#231f20;stroke-width:2.9px;"/><g><rect x="25.221" y="38.2" width="94.635" height="118.293" style="fill:#fff;stroke:#231f20;stroke-width:2.9px;"/><rect x="32.127" y="44.576" width="80.821" height="86.151" style="fill:#fff;stroke:#231f20;stroke-width:2.9px;"/></g><path d="M130.76,146.825c0,0 -8.334,12.061 -11.776,17.042c-0.265,0.383 -0.728,0.579 -1.188,0.501c-0.459,-0.078 -0.832,-0.415 -0.956,-0.864c-2.87,-10.393 -13.926,-50.42 -16.709,-60.498c-0.121,-0.438 0.016,-0.907 0.354,-1.211c0.337,-0.304 0.818,-0.391 1.241,-0.225c9.732,3.82 48.387,18.992 58.424,22.931c0.434,0.171 0.73,0.577 0.759,1.042c0.029,0.465 -0.213,0.905 -0.622,1.128c-5.313,2.904 -18.178,9.934 -18.178,9.934c0,-0 19.972,22.178 24.257,26.935c0.213,0.237 0.323,0.548 0.307,0.866c-0.017,0.318 -0.159,0.616 -0.396,0.829c-2.12,1.91 -7.445,6.705 -9.565,8.614c-0.237,0.213 -0.548,0.324 -0.866,0.307c-0.318,-0.017 -0.616,-0.159 -0.829,-0.395c-4.284,-4.758 -24.257,-26.936 -24.257,-26.936Z" style="fill:#fff;stroke:#231f20;stroke-width:2.93px;"/></g><g><path d="M345.652,146.825c-0,0 -8.335,12.061 -11.777,17.042c-0.265,0.383 -0.728,0.579 -1.187,0.501c-0.46,-0.078 -0.833,-0.415 -0.957,-0.864c-2.87,-10.393 -13.925,-50.42 -16.709,-60.498c-0.121,-0.438 0.016,-0.907 0.354,-1.211c0.338,-0.304 0.819,-0.391 1.242,-0.225c9.732,3.82 48.387,18.992 58.423,22.931c0.434,0.171 0.73,0.577 0.759,1.042c0.03,0.465 -0.213,0.905 -0.622,1.128c-5.313,2.904 -18.178,9.934 -18.178,9.934c0,-0 19.973,22.178 24.257,26.935c0.213,0.237 0.324,0.548 0.307,0.866c-0.017,0.318 -0.159,0.616 -0.395,0.829c-2.121,1.91 -7.445,6.705 -9.566,8.614c-0.236,0.213 -0.548,0.324 -0.865,0.307c-0.318,-0.017 -0.617,-0.159 -0.829,-0.395c-4.285,-4.758 -24.257,-26.936 -24.257,-26.936Z" style="fill:#fff;stroke:#231f20;stroke-width:2.93px;"/><path d="M337.791,60.802l-13.874,32.02c-0.531,1.498 -4.225,0.188 -3.693,-1.31l8.755,-33.837c0.531,-1.497 2.937,-2.013 5.369,-1.15c2.432,0.863 3.974,2.779 3.443,4.277Z" style="fill:#fff;stroke:#231f20;stroke-width:2.13px;"/><path d="M356.533,98.784l-27.17,1.291c-1.23,0.144 -1.587,-2.92 -0.357,-3.064l26.675,-5.538c1.23,-0.144 2.42,1.378 2.655,3.395c0.235,2.018 -0.572,3.772 -1.803,3.916Z" style="fill:#fff;stroke:#231f20;stroke-width:2.13px;"/><path d="M305.564,48.823l8.314,41.823c0.484,1.882 -3.311,2.858 -3.795,0.976l-13.574,-40.469c-0.484,-1.883 1.151,-3.933 3.65,-4.575c2.499,-0.643 4.921,0.363 5.405,2.245Z" style="fill:#fff;stroke:#231f20;stroke-width:2.13px;"/><path d="M267.232,61.402l37.732,34.436c1.791,1.489 -0.713,4.503 -2.505,3.014l-41.204,-30.259c-1.791,-1.489 -1.907,-4.308 -0.257,-6.293c1.649,-1.984 4.442,-2.387 6.234,-0.898Z" style="fill:#fff;stroke:#231f20;stroke-width:2.13px;"/><path d="M259.549,99.571l42.27,5.608c1.938,0.148 1.639,4.055 -0.298,3.907l-42.685,-0.192c-1.938,-0.148 -3.352,-2.357 -3.155,-4.93c0.197,-2.573 1.93,-4.542 3.868,-4.393Z" style="fill:#fff;stroke:#231f20;stroke-width:2.13px;"/><path d="M277.126,129.1l27.232,-16.268c1.18,-0.831 3.436,2.374 2.255,3.205l-24.105,20.71c-1.181,0.831 -3.345,-0.207 -4.83,-2.317c-1.485,-2.111 -1.732,-4.499 -0.552,-5.33Z" style="fill:#fff;stroke:#231f20;stroke-width:2.13px;"/><path d="M309.025,137.577l2.071,-19.182c0.019,-0.877 2.747,-0.817 2.727,0.06l1.71,19.265c-0.02,0.878 -1.493,1.558 -3.289,1.518c-1.796,-0.039 -3.239,-0.784 -3.219,-1.661Z" style="fill:#fff;stroke:#231f20;stroke-width:2.13px;"/></g><path d="M236.424,16.892l-45.253,165.663c-0.301,1.105 -1.443,1.757 -2.548,1.455l-4.004,-1.093c-1.105,-0.302 -1.757,-1.444 -1.455,-2.549l45.252,-165.663c0.302,-1.105 1.444,-1.757 2.549,-1.456l4.004,1.094c1.105,0.302 1.757,1.444 1.455,2.549Z" style="fill:#fff;stroke:#231f20;stroke-width:2.9px;"/></g></svg>