<?xml version="1.0" encoding="UTF-8" standalone="no"?><!DOCTYPE svg PUBLIC "-//W3C//DTD SVG 1.1//EN" "http://www.w3.org/Graphics/SVG/1.1/DTD/svg11.dtd"><svg width="100%" height="100%" viewBox="0 0 793 119" version="1.1" xmlns="http://www.w3.org/2000/svg" xmlns:xlink="http://www.w3.org/1999/xlink" xml:space="preserve" xmlns:serif="http://www.serif.com/" style="fill-rule:evenodd;clip-rule:evenodd;stroke-linejoin:round;stroke-miterlimit:2;"><g><path d="M12.296,93.539c-2.024,0 -3.995,-0.389 -5.915,-1.167c-1.867,-0.83 -3.398,-2.049 -4.591,-3.657c-1.193,-1.609 -1.79,-3.632 -1.79,-6.07l0,-68.171c0,-2.438 0.571,-4.435 1.712,-5.992c1.193,-1.608 2.698,-2.827 4.514,-3.657c1.815,-0.83 3.761,-1.271 5.836,-1.323l18.288,-0c6.225,-0 11.828,1.219 16.809,3.657c4.98,2.439 8.923,5.889 11.828,10.35c2.958,4.462 4.436,9.702 4.436,15.72l0,1.712c0,5.863 -1.478,10.999 -4.436,15.408c-2.905,4.41 -6.874,7.86 -11.906,10.35c-4.98,2.439 -10.558,3.658 -16.731,3.658l-5.759,-0l0,18.288c0,2.438 -0.597,4.461 -1.79,6.07c-1.193,1.608 -2.723,2.827 -4.591,3.657c-1.868,0.778 -3.839,1.167 -5.914,1.167Zm12.295,-50.116c3.217,0 5.888,-0.466 8.016,-1.4c2.127,-0.934 3.709,-2.127 4.747,-3.58c1.089,-1.453 1.634,-2.957 1.634,-4.514c-0,-1.608 -0.545,-3.112 -1.634,-4.513c-1.038,-1.453 -2.62,-2.646 -4.747,-3.58c-2.128,-0.934 -4.799,-1.401 -8.016,-1.401l0,18.988Z" style="fill:#c80000;fill-rule:nonzero;"/><path d="M103.5,94.084c-5.499,0 -10.298,-0.934 -14.396,-2.801c-4.047,-1.92 -7.445,-4.462 -10.195,-7.627c-2.749,-3.216 -4.799,-6.822 -6.147,-10.817c-1.349,-3.994 -2.024,-8.093 -2.024,-12.295c0,-4.202 0.675,-8.301 2.024,-12.296c1.348,-3.994 3.398,-7.574 6.147,-10.739c2.75,-3.216 6.148,-5.759 10.195,-7.626c4.098,-1.92 8.897,-2.88 14.396,-2.88c5.448,0 10.221,0.96 14.319,2.88c4.099,1.867 7.523,4.41 10.272,7.626c2.75,3.165 4.799,6.745 6.148,10.739c1.401,3.995 2.101,8.094 2.101,12.296c0,4.202 -0.7,8.301 -2.101,12.295c-1.349,3.995 -3.398,7.601 -6.148,10.817c-2.749,3.165 -6.173,5.707 -10.272,7.627c-4.098,1.867 -8.871,2.801 -14.319,2.801Zm0,-18.521c1.816,0 3.347,-0.726 4.592,-2.179c1.245,-1.453 2.153,-3.32 2.723,-5.603c0.623,-2.335 0.934,-4.747 0.934,-7.237c0,-2.49 -0.311,-4.877 -0.934,-7.16c-0.57,-2.334 -1.478,-4.228 -2.723,-5.68c-1.245,-1.453 -2.776,-2.179 -4.592,-2.179c-1.867,-0 -3.424,0.726 -4.669,2.179c-1.193,1.452 -2.101,3.346 -2.724,5.68c-0.57,2.283 -0.856,4.67 -0.856,7.16c0,2.49 0.286,4.902 0.856,7.237c0.623,2.283 1.531,4.15 2.724,5.603c1.245,1.453 2.802,2.179 4.669,2.179Z" style="fill:#231f20;fill-rule:nonzero;"/><path d="M176.184,94.006c-3.735,0 -7.471,-0.363 -11.206,-1.089c-3.735,-0.726 -7.108,-1.79 -10.117,-3.191c-1.867,-0.934 -3.216,-2.049 -4.046,-3.346c-0.83,-1.297 -1.245,-2.62 -1.245,-3.969c-0,-2.023 0.752,-3.839 2.256,-5.447c1.505,-1.608 3.373,-2.413 5.604,-2.413c1.089,0 2.256,0.286 3.501,0.856c1.246,0.519 3.087,1.142 5.526,1.868c2.49,0.675 4.85,1.012 7.081,1.012c2.335,-0 3.969,-0.519 4.903,-1.557c0.519,-0.622 0.778,-1.297 0.778,-2.023c0,-1.297 -0.778,-2.412 -2.335,-3.346c-0.83,-0.415 -1.867,-0.701 -3.112,-0.856l-9.883,-2.101c-6.745,-1.453 -11.492,-4.358 -14.241,-8.716c-2.024,-3.165 -3.035,-6.589 -3.035,-10.272c-0,-4.514 1.452,-8.82 4.357,-12.919c4.825,-6.692 12.841,-10.038 24.047,-10.038c5.395,-0 10.428,0.83 15.097,2.49c2.283,0.83 3.943,1.945 4.98,3.346c1.038,1.349 1.557,2.776 1.557,4.28c-0,1.92 -0.753,3.658 -2.257,5.214c-1.505,1.557 -3.398,2.335 -5.681,2.335c-0.934,-0 -1.894,-0.156 -2.879,-0.467c-3.632,-1.193 -6.848,-1.842 -9.65,-1.946c-1.919,0 -3.372,0.415 -4.358,1.246c-0.986,0.778 -1.478,1.634 -1.478,2.568c-0,0.83 0.363,1.634 1.089,2.412c0.726,0.726 1.79,1.271 3.191,1.634l13.696,3.035c5.499,1.297 9.65,3.761 12.451,7.393c2.802,3.58 4.202,7.497 4.202,11.751c0,3.528 -0.985,6.978 -2.957,10.35c-1.971,3.32 -4.928,6.044 -8.871,8.171c-4.514,2.49 -10.169,3.735 -16.965,3.735Z" style="fill:#231f20;fill-rule:nonzero;"/><path d="M248.634,94.473l-1.478,0c-7.315,-0.311 -13.385,-1.997 -18.21,-5.058c-4.825,-3.061 -8.431,-6.978 -10.817,-11.751c-2.335,-4.773 -3.502,-9.805 -3.502,-15.097c0,-6.952 1.401,-13.255 4.202,-18.91c3.113,-5.966 7.445,-10.376 12.996,-13.229c5.551,-2.906 11.284,-4.358 17.198,-4.358c4.825,-0 9.391,0.933 13.697,2.801c4.306,1.868 7.808,4.617 10.505,8.249c2.698,3.58 4.151,8.041 4.358,13.385l0,2.023c0,1.661 -0.026,3.321 -0.078,4.981c-0.051,1.608 -0.622,2.931 -1.712,3.969c-1.089,1.037 -2.386,1.556 -3.891,1.556l-32.295,0l0,0.234c0,2.905 0.597,5.162 1.79,6.77c1.193,1.608 2.802,2.749 4.825,3.424c2.023,0.674 4.28,1.012 6.77,1.012c2.906,-0 5.966,-0.312 9.183,-0.934c0.726,-0.104 1.401,-0.156 2.023,-0.156c2.906,0 5.085,0.934 6.537,2.802c1.505,1.815 2.257,3.891 2.257,6.225c-0,2.127 -0.649,4.151 -1.946,6.07c-1.297,1.868 -3.242,3.165 -5.836,3.891c-5.396,1.401 -10.921,2.101 -16.576,2.101Zm9.339,-44.513c-0.467,-2.853 -1.531,-5.032 -3.191,-6.537c-1.66,-1.504 -3.476,-2.256 -5.447,-2.256c-1.92,-0 -3.71,0.726 -5.37,2.179c-1.66,1.4 -2.853,3.605 -3.58,6.614l17.588,0Z" style="fill:#231f20;fill-rule:nonzero;"/><path d="M352.679,56.03l-35.641,0c-2.231,0 -3.917,-0.778 -5.058,-2.334c-1.142,-1.609 -1.712,-3.347 -1.712,-5.214c-0,-1.92 0.57,-3.658 1.712,-5.214c1.141,-1.557 2.827,-2.335 5.058,-2.335l35.641,0c2.231,0 3.917,0.778 5.059,2.335c1.141,1.556 1.712,3.294 1.712,5.214c-0,1.867 -0.571,3.605 -1.712,5.214c-1.142,1.556 -2.828,2.334 -5.059,2.334Z" style="fill:#231f20;fill-rule:nonzero;"/><path d="M411.044,93.539c-2.023,0 -3.994,-0.389 -5.914,-1.167c-1.868,-0.83 -3.398,-2.049 -4.591,-3.657c-1.194,-1.609 -1.79,-3.632 -1.79,-6.07l-0,-68.171c-0,-2.438 0.57,-4.435 1.712,-5.992c1.193,-1.608 2.698,-2.827 4.513,-3.657c1.816,-0.83 3.762,-1.271 5.837,-1.323l18.288,-0c6.225,-0 11.828,1.219 16.809,3.657c4.98,2.439 8.923,5.889 11.828,10.35c2.957,4.462 4.436,9.702 4.436,15.72l-0,1.712c-0,5.863 -1.479,10.999 -4.436,15.408c-2.905,4.41 -6.874,7.86 -11.906,10.35c-4.981,2.439 -10.558,3.658 -16.731,3.658l-5.759,-0l-0,18.288c-0,2.438 -0.597,4.461 -1.79,6.07c-1.193,1.608 -2.724,2.827 -4.591,3.657c-1.868,0.778 -3.839,1.167 -5.915,1.167Zm12.296,-50.116c3.216,0 5.888,-0.466 8.015,-1.4c2.127,-0.934 3.71,-2.127 4.747,-3.58c1.09,-1.453 1.635,-2.957 1.635,-4.514c-0,-1.608 -0.545,-3.112 -1.635,-4.513c-1.037,-1.453 -2.62,-2.646 -4.747,-3.58c-2.127,-0.934 -4.799,-1.401 -8.015,-1.401l-0,18.988Z" style="fill:#c80000;fill-rule:nonzero;"/><path d="M488.086,93.695c-2.023,0 -3.995,-0.389 -5.914,-1.167c-1.868,-0.83 -3.399,-2.049 -4.592,-3.658c-1.193,-1.66 -1.79,-3.709 -1.79,-6.148l0,-71.749c0,-2.439 0.597,-4.462 1.79,-6.07c1.193,-1.661 2.724,-2.88 4.592,-3.658c1.919,-0.83 3.891,-1.245 5.914,-1.245c2.075,-0 4.047,0.415 5.914,1.245c1.868,0.778 3.398,1.997 4.592,3.658c1.193,1.608 1.789,3.631 1.789,6.07l0,71.749c0,2.439 -0.596,4.488 -1.789,6.148c-1.194,1.609 -2.724,2.828 -4.592,3.658c-1.867,0.778 -3.839,1.167 -5.914,1.167Z" style="fill:#231f20;fill-rule:nonzero;"/><path d="M546.762,76.186c2.646,-0 4.929,-1.064 6.848,-3.191l0,-26.537c-1.193,-1.608 -2.931,-2.412 -5.214,-2.412c-4.669,0 -7.704,2.931 -9.105,8.794c-0.674,2.697 -1.011,5.499 -1.011,8.404c-0,9.961 2.827,14.942 8.482,14.942Zm-6.848,18.287c-8.353,0 -14.812,-3.528 -19.377,-10.583c-4.047,-6.226 -6.07,-13.489 -6.07,-21.79c-0,-4.565 0.622,-9.027 1.868,-13.385c1.245,-4.358 3.138,-8.249 5.68,-11.673c2.439,-3.113 5.552,-5.499 9.339,-7.159c3.787,-1.712 7.704,-2.568 11.751,-2.568c7.782,-0 13.696,2.257 17.742,6.77c2.594,-2.127 5.474,-3.191 8.638,-3.191c0.831,0 1.661,0.078 2.491,0.234c4.098,0.674 6.147,3.787 6.147,9.338l0.078,44.825c0,5.551 -2.334,8.326 -7.003,8.326c-4.462,0 -8.275,-2.698 -11.44,-8.093c-2.853,2.905 -5.992,5.136 -9.416,6.692c-3.424,1.505 -6.9,2.257 -10.428,2.257Z" style="fill:#231f20;fill-rule:nonzero;"/><path d="M613.454,118.909l-1.479,-0.078c-1.401,-0.104 -2.905,-0.493 -4.513,-1.167c-1.609,-0.623 -3.009,-1.635 -4.203,-3.035c-1.193,-1.349 -1.79,-3.165 -1.79,-5.448c0,-1.816 0.467,-3.891 1.401,-6.225l8.093,-19.144l-22.489,-40.933c-0.519,-1.194 -0.779,-2.542 -0.779,-4.047c0.208,-6.9 4.047,-10.739 11.518,-11.517l1.79,-0.078c6.018,-0 10.453,2.646 13.307,7.938l9.727,19.688c2.646,-6.122 5.266,-12.244 7.86,-18.366c2.646,-6.121 6.641,-9.182 11.984,-9.182l1.712,0.078c1.038,0.103 2.361,0.492 3.969,1.167c1.608,0.674 3.087,1.738 4.436,3.19c1.349,1.401 2.023,3.295 2.023,5.681c0,1.609 -0.441,3.476 -1.323,5.603l-30.038,68.871c-2.024,4.669 -5.759,7.004 -11.206,7.004Z" style="fill:#231f20;fill-rule:nonzero;"/><path d="M697.343,94.473l-1.478,0c-7.315,-0.311 -13.385,-1.997 -18.21,-5.058c-4.825,-3.061 -8.43,-6.978 -10.817,-11.751c-2.335,-4.773 -3.502,-9.805 -3.502,-15.097c0,-6.952 1.401,-13.255 4.202,-18.91c3.113,-5.966 7.445,-10.376 12.996,-13.229c5.552,-2.906 11.284,-4.358 17.199,-4.358c4.824,-0 9.39,0.933 13.696,2.801c4.306,1.868 7.808,4.617 10.506,8.249c2.697,3.58 4.15,8.041 4.357,13.385l0,2.023c0,1.661 -0.026,3.321 -0.077,4.981c-0.052,1.608 -0.623,2.931 -1.712,3.969c-1.09,1.037 -2.387,1.556 -3.891,1.556l-32.296,0l0,0.234c0,2.905 0.597,5.162 1.79,6.77c1.193,1.608 2.802,2.749 4.825,3.424c2.023,0.674 4.28,1.012 6.77,1.012c2.906,-0 5.967,-0.312 9.183,-0.934c0.726,-0.104 1.401,-0.156 2.023,-0.156c2.906,0 5.085,0.934 6.537,2.802c1.505,1.815 2.257,3.891 2.257,6.225c0,2.127 -0.648,4.151 -1.945,6.07c-1.297,1.868 -3.243,3.165 -5.837,3.891c-5.395,1.401 -10.921,2.101 -16.576,2.101Zm9.339,-44.513c-0.467,-2.853 -1.531,-5.032 -3.191,-6.537c-1.66,-1.504 -3.476,-2.256 -5.447,-2.256c-1.92,-0 -3.71,0.726 -5.37,2.179c-1.66,1.4 -2.853,3.605 -3.579,6.614l17.587,0Z" style="fill:#231f20;fill-rule:nonzero;"/><path d="M750.806,93.617c-2.024,0 -3.995,-0.389 -5.915,-1.167c-1.867,-0.83 -3.398,-2.049 -4.591,-3.658c-1.193,-1.608 -1.79,-3.631 -1.79,-6.07l0,-44.746c0,-2.179 0.441,-3.969 1.323,-5.369c0.934,-1.453 2.049,-2.517 3.346,-3.191c1.349,-0.726 2.672,-1.09 3.969,-1.09c2.127,0.052 4.228,0.908 6.304,2.568c2.127,1.661 3.942,4.151 5.447,7.471c5.603,-7.419 13.177,-11.128 22.723,-11.128l2.257,0.078c2.802,0.259 4.981,1.297 6.537,3.113c1.556,1.815 2.335,3.839 2.335,6.069c-0,2.439 -0.727,4.696 -2.179,6.771c-1.453,2.075 -3.502,3.113 -6.148,3.113c-2.594,-0 -5.162,0.077 -7.704,0.233c-2.542,0.156 -4.851,0.675 -6.926,1.556c-2.024,0.831 -3.658,2.205 -4.903,4.125c-1.193,1.919 -1.79,4.643 -1.79,8.171l0,22.256c0,2.439 -0.596,4.462 -1.79,6.07c-1.193,1.609 -2.723,2.828 -4.591,3.658c-1.868,0.778 -3.839,1.167 -5.914,1.167Z" style="fill:#231f20;fill-rule:nonzero;"/></g></svg>