<?xml version="1.0" encoding="UTF-8" standalone="no"?><!DOCTYPE svg PUBLIC "-//W3C//DTD SVG 1.1//EN" "http://www.w3.org/Graphics/SVG/1.1/DTD/svg11.dtd"><svg width="100%" height="100%" viewBox="0 0 103 98" version="1.1" xmlns="http://www.w3.org/2000/svg" xmlns:xlink="http://www.w3.org/1999/xlink" xml:space="preserve" xmlns:serif="http://www.serif.com/" style="fill-rule:evenodd;clip-rule:evenodd;stroke-linecap:round;stroke-linejoin:round;stroke-miterlimit:1.5;"><rect id="Artboard1" x="0" y="0" width="102.387" height="97.544" style="fill:none;"/><g><path d="M85.433,31.652l0,34.24c0,9.449 -7.671,17.12 -17.12,17.12l-34.24,-0c-9.448,-0 -17.119,-7.671 -17.119,-17.12l-0,-34.24c-0,-9.449 7.671,-17.12 17.119,-17.12l34.24,0c9.449,0 17.12,7.671 17.12,17.12Z" style="fill:#ebebeb;stroke:#000;stroke-width:1.67px;"/><path d="M77.288,35.725l0,26.094c0,7.201 -5.846,13.048 -13.047,13.048l-26.095,-0c-7.201,-0 -13.047,-5.847 -13.047,-13.048l-0,-26.094c-0,-7.201 5.846,-13.048 13.047,-13.048l26.095,0c7.201,0 13.047,5.847 13.047,13.048Z" style="fill:none;stroke:#000;stroke-width:1.67px;"/><path d="M52.788,55.152l12.76,-0l-0,-12.76l-12.76,0l0,-9.569l-15.949,15.949l15.949,15.949l0,-9.569Z" style="fill:none;fill-rule:nonzero;stroke:#000;stroke-width:1.67px;stroke-linecap:butt;stroke-miterlimit:2;"/></g></svg>