<?xml version="1.0" encoding="UTF-8" standalone="no"?><!DOCTYPE svg PUBLIC "-//W3C//DTD SVG 1.1//EN" "http://www.w3.org/Graphics/SVG/1.1/DTD/svg11.dtd"><svg width="100%" height="100%" viewBox="0 0 193 91" version="1.1" xmlns="http://www.w3.org/2000/svg" xmlns:xlink="http://www.w3.org/1999/xlink" xml:space="preserve" xmlns:serif="http://www.serif.com/" style="fill-rule:evenodd;clip-rule:evenodd;stroke-linejoin:round;stroke-miterlimit:2;"><g><path d="M12.295,90.043c-2.023,-0 -3.994,-0.39 -5.914,-1.168c-1.868,-0.83 -3.398,-2.049 -4.591,-3.657c-1.193,-1.609 -1.79,-3.632 -1.79,-6.07l-0,-68.17c-0,-2.439 0.571,-4.436 1.712,-5.993c1.193,-1.608 2.698,-2.827 4.514,-3.657c1.815,-0.83 3.761,-1.271 5.836,-1.323l18.288,-0c6.225,-0 11.828,1.219 16.809,3.657c4.98,2.439 8.923,5.889 11.828,10.351c2.958,4.461 4.436,9.701 4.436,15.719l0,1.712c0,5.863 -1.478,10.999 -4.436,15.408c-2.905,4.41 -6.874,7.86 -11.906,10.351c-4.981,2.438 -10.558,3.657 -16.731,3.657l-5.759,0l0,18.288c0,2.438 -0.597,4.461 -1.79,6.07c-1.193,1.608 -2.724,2.827 -4.591,3.657c-1.868,0.778 -3.839,1.168 -5.915,1.168Zm12.296,-50.116c3.217,-0 5.888,-0.467 8.015,-1.401c2.128,-0.934 3.71,-2.127 4.747,-3.58c1.09,-1.453 1.635,-2.957 1.635,-4.513c-0,-1.609 -0.545,-3.113 -1.635,-4.514c-1.037,-1.453 -2.619,-2.646 -4.747,-3.58c-2.127,-0.934 -4.798,-1.401 -8.015,-1.401l0,18.989Z" style="fill:#c80000;fill-rule:nonzero;"/><path d="M110.971,52.533l-35.641,0c-2.231,0 -3.917,-0.778 -5.058,-2.334c-1.142,-1.609 -1.712,-3.347 -1.712,-5.214c-0,-1.92 0.57,-3.658 1.712,-5.214c1.141,-1.557 2.827,-2.335 5.058,-2.335l35.641,0c2.231,0 3.917,0.778 5.059,2.335c1.141,1.556 1.712,3.294 1.712,5.214c-0,1.867 -0.571,3.605 -1.712,5.214c-1.142,1.556 -2.828,2.334 -5.059,2.334Z" style="fill-rule:nonzero;"/><path d="M141.321,90.043c-2.023,-0 -3.995,-0.39 -5.914,-1.168c-1.868,-0.83 -3.398,-2.049 -4.592,-3.657c-1.193,-1.609 -1.79,-3.632 -1.79,-6.07l0,-68.17c0,-2.439 0.571,-4.436 1.712,-5.993c1.194,-1.608 2.698,-2.827 4.514,-3.657c1.816,-0.83 3.761,-1.271 5.837,-1.323l18.287,-0c6.226,-0 11.829,1.219 16.809,3.657c4.981,2.439 8.924,5.889 11.829,10.351c2.957,4.461 4.436,9.701 4.436,15.719l-0,1.712c-0,5.863 -1.479,10.999 -4.436,15.408c-2.905,4.41 -6.874,7.86 -11.907,10.351c-4.98,2.438 -10.557,3.657 -16.731,3.657l-5.758,0l-0,18.288c-0,2.438 -0.597,4.461 -1.79,6.07c-1.194,1.608 -2.724,2.827 -4.592,3.657c-1.867,0.778 -3.839,1.168 -5.914,1.168Zm12.296,-50.116c3.216,-0 5.888,-0.467 8.015,-1.401c2.127,-0.934 3.709,-2.127 4.747,-3.58c1.089,-1.453 1.634,-2.957 1.634,-4.513c0,-1.609 -0.545,-3.113 -1.634,-4.514c-1.038,-1.453 -2.62,-2.646 -4.747,-3.58c-2.127,-0.934 -4.799,-1.401 -8.015,-1.401l-0,18.989Z" style="fill:#c80000;fill-rule:nonzero;"/></g></svg>