<?xml version="1.0" encoding="UTF-8" standalone="no"?><!DOCTYPE svg PUBLIC "-//W3C//DTD SVG 1.1//EN" "http://www.w3.org/Graphics/SVG/1.1/DTD/svg11.dtd"><svg width="100%" height="100%" viewBox="0 0 140 91" version="1.1" xmlns="http://www.w3.org/2000/svg" xmlns:xlink="http://www.w3.org/1999/xlink" xml:space="preserve" xmlns:serif="http://www.serif.com/" style="fill-rule:evenodd;clip-rule:evenodd;stroke-linejoin:round;stroke-miterlimit:2;"><g><path d="M12.296,90.038c-2.024,0 -3.995,-0.389 -5.915,-1.167c-1.867,-0.83 -3.398,-2.05 -4.591,-3.658c-1.193,-1.608 -1.79,-3.631 -1.79,-6.07l0,-68.17c0,-2.438 0.571,-4.436 1.712,-5.992c1.193,-1.608 2.698,-2.828 4.514,-3.658c1.816,-0.83 3.761,-1.271 5.836,-1.323l18.288,0c6.226,0 11.829,1.22 16.809,3.658c4.98,2.438 8.923,5.888 11.829,10.35c2.957,4.462 4.435,9.702 4.435,15.72l0,1.712c0,5.862 -1.478,10.998 -4.435,15.408c-2.906,4.41 -6.874,7.86 -11.907,10.35c-4.98,2.438 -10.557,3.658 -16.731,3.658l-5.759,-0l0,18.287c0,2.439 -0.596,4.462 -1.79,6.07c-1.193,1.608 -2.723,2.828 -4.591,3.658c-1.868,0.778 -3.839,1.167 -5.914,1.167Zm12.295,-50.116c3.217,0 5.889,-0.467 8.016,-1.401c2.127,-0.934 3.709,-2.127 4.747,-3.579c1.089,-1.453 1.634,-2.958 1.634,-4.514c-0,-1.608 -0.545,-3.113 -1.634,-4.514c-1.038,-1.452 -2.62,-2.645 -4.747,-3.579c-2.127,-0.934 -4.799,-1.401 -8.016,-1.401l0,18.988Z" style="fill:#c80000;fill-rule:nonzero;"/><path d="M88.559,90.038c-2.024,0 -3.995,-0.389 -5.915,-1.167c-1.867,-0.83 -3.398,-2.05 -4.591,-3.658c-1.193,-1.608 -1.79,-3.631 -1.79,-6.07l0,-68.17c0,-2.438 0.571,-4.436 1.712,-5.992c1.193,-1.608 2.698,-2.828 4.514,-3.658c1.816,-0.83 3.761,-1.271 5.836,-1.323l18.288,0c6.226,0 11.829,1.22 16.809,3.658c4.98,2.438 8.923,5.888 11.829,10.35c2.957,4.462 4.435,9.702 4.435,15.72l0,1.712c0,5.862 -1.478,10.998 -4.435,15.408c-2.906,4.41 -6.874,7.86 -11.907,10.35c-4.98,2.438 -10.557,3.658 -16.731,3.658l-5.759,-0l0,18.287c0,2.439 -0.596,4.462 -1.79,6.07c-1.193,1.608 -2.723,2.828 -4.591,3.658c-1.868,0.778 -3.839,1.167 -5.914,1.167Zm12.295,-50.116c3.217,0 5.889,-0.467 8.016,-1.401c2.127,-0.934 3.709,-2.127 4.747,-3.579c1.089,-1.453 1.634,-2.958 1.634,-4.514c-0,-1.608 -0.545,-3.113 -1.634,-4.514c-1.038,-1.452 -2.62,-2.645 -4.747,-3.579c-2.127,-0.934 -4.799,-1.401 -8.016,-1.401l0,18.988Z" style="fill:#c80000;fill-rule:nonzero;"/></g></svg>